<svg width="85" height="27" fill="none" xmlns="http://www.w3.org/2000/svg"><path d="M13.112 26.36c-1.728 0-3.36-.336-4.896-1.008a12.728 12.728 0 01-4.032-2.772 13.817 13.817 0 01-2.736-4.14C.8 16.856.476 15.164.476 13.364c0-1.8.324-3.48.972-5.04A13.356 13.356 0 014.184 4.22a12.286 12.286 0 014.104-2.772C9.872.776 11.576.44 13.4.44c1.992 0 3.84.384 5.544 1.152a11.564 11.564 0 014.284 3.276L20.42 7.676c-.744-1.056-1.74-1.86-2.988-2.412C16.184 4.688 14.84 4.4 13.4 4.4c-1.728 0-3.252.384-4.572 1.152a7.757 7.757 0 00-3.024 3.132c-.72 1.344-1.08 2.904-1.08 4.68 0 1.776.36 3.348 1.08 4.716.744 1.344 1.74 2.4 2.988 3.168 1.248.768 2.664 1.152 4.248 1.152 1.68 0 3.12-.3 4.32-.9a6.443 6.443 0 002.808-2.736c.648-1.224.972-2.724.972-4.5l2.592 1.872H12.968v-3.78h12.456v.576c0 3-.54 5.496-1.62 7.488-1.056 1.992-2.508 3.48-4.356 4.464-1.848.984-3.96 1.476-6.336 1.476zM26.405 26V8.72h3.96V26h-3.96zm3.96-9.612l-1.368-.684c0-2.184.48-3.948 1.44-5.292.984-1.368 2.46-2.052 4.428-2.052.864 0 1.644.156 2.34.468.696.312 1.344.816 1.944 1.512l-2.592 2.664a2.73 2.73 0 00-1.044-.72c-.384-.144-.828-.216-1.332-.216-1.104 0-2.016.348-2.736 1.044-.72.696-1.08 1.788-1.08 3.276zM38.5 26V8.72h3.96V26H38.5zm1.98-20.448c-.672 0-1.236-.228-1.692-.684-.432-.456-.648-1.02-.648-1.692 0-.672.216-1.236.648-1.692.456-.456 1.02-.684 1.692-.684.696 0 1.26.228 1.692.684.432.456.648 1.02.648 1.692 0 .672-.216 1.236-.648 1.692-.432.456-.996.684-1.692.684zM51.538 26.36c-1.56 0-2.976-.396-4.248-1.188-1.248-.792-2.244-1.86-2.988-3.204-.72-1.368-1.08-2.892-1.08-4.572 0-1.704.36-3.228 1.08-4.572.744-1.368 1.74-2.448 2.988-3.24 1.272-.816 2.688-1.224 4.248-1.224 1.32 0 2.484.288 3.492.864a6.283 6.283 0 012.448 2.304c.6.984.9 2.1.9 3.348v4.968c0 1.248-.3 2.364-.9 3.348a6.282 6.282 0 01-2.412 2.34c-1.032.552-2.208.828-3.528.828zm.648-3.744c.984 0 1.836-.216 2.556-.648a4.645 4.645 0 001.728-1.872c.408-.792.612-1.704.612-2.736 0-1.032-.204-1.944-.612-2.736a4.404 4.404 0 00-1.728-1.836c-.72-.456-1.572-.684-2.556-.684-.96 0-1.812.228-2.556.684-.72.432-1.296 1.044-1.728 1.836-.408.792-.612 1.704-.612 2.736 0 1.032.204 1.944.612 2.736a5.004 5.004 0 001.728 1.872c.744.432 1.596.648 2.556.648zM60.79 26h-3.96v-4.644l.684-4.212-.684-4.176V.08h3.96V26zm19.04 0l-7.417-11.232h-.756L61.685.8h4.896l7.452 10.584h.756L84.653 26H79.83zm-18.577 0l9.576-13.464 2.844 2.412L65.897 26h-4.644zm13.824-12.06l-2.844-2.412L79.577.8h4.644l-9.144 13.14z" fill="#fff"/></svg>